<?xml version="1.0" encoding="utf-8"?>
<!-- Generator: Adobe Illustrator 16.0.0, SVG Export Plug-In . SVG Version: 6.00 Build 0)  -->
<!DOCTYPE svg PUBLIC "-//W3C//DTD SVG 1.1//EN" "http://www.w3.org/Graphics/SVG/1.1/DTD/svg11.dtd">
<svg version="1.1" id="Layer_1" xmlns="http://www.w3.org/2000/svg" xmlns:xlink="http://www.w3.org/1999/xlink" x="0px" y="0px"
	 width="250px" height="41px" viewBox="0 0 250 41" enable-background="new 0 0 250 41" xml:space="preserve">
<g>
	<g>
		<path fill="#1C3D7B" d="M0,21.765c6.938,1.264,13.436-3.611,15.221-8.464C14.073,19.997,7.099,25.705,0,26.274"/>
		<path fill="#4FAE46" d="M30.528,4.511c-6.939-1.261-13.439,3.606-15.225,8.467C16.451,6.277,23.427,0.568,30.528,0"/>
		<path fill="#1C3D7B" d="M0,29.125c6.938,1.262,13.436-3.608,15.221-8.467C14.073,27.356,7.099,33.065,0,33.639"/>
		<path fill="#4FAE46" d="M30.528,11.869c-6.939-1.256-13.439,3.612-15.225,8.469c1.147-6.695,8.123-12.406,15.225-12.974"/>
		<path fill="#1C3D7B" d="M0,36.487c6.938,1.263,13.436-3.606,15.221-8.465C14.073,34.721,7.099,40.431,0,41"/>
		<path fill="#4FAE46" d="M30.528,19.238c-6.939-1.264-13.439,3.61-15.225,8.46c1.147-6.695,8.123-12.406,15.225-12.975"/>
		<path fill="#1C3D7B" d="M48.587,18.182h-0.425c-0.547-1.683-2.12-3.001-3.617-3.001c-1.328,0-2.402,0.868-2.402,1.959
			c0,0.541,0.28,1.094,0.727,1.536c0.721,0.722,4.068,2.477,4.97,3.367c1.097,1.093,1.599,2.079,1.599,3.346
			c0,3.195-2.898,4.204-4.702,4.204c-1.739,0-2.812-0.566-3.562-0.566c-0.322,0-0.6,0.17-0.752,0.468h-0.425v-4.351h0.425
			c0.43,2.149,1.828,3.635,3.924,3.635c1.569,0,2.698-0.866,2.698-2.062c0-0.463-0.211-1.108-0.753-1.649
			c-1.129-1.115-3.697-2.179-4.911-3.395c-0.881-0.868-1.305-1.932-1.305-3.072c0-2.497,1.899-4.23,4.593-4.23
			c0.551,0,1.046,0.09,1.496,0.193c0.455,0.099,0.88,0.196,1.251,0.196c0.228,0,0.474-0.125,0.748-0.39h0.425"/>
		<path fill="#1C3D7B" d="M62.37,22.91h-0.426c-0.926-1.928-2.002-2.824-3.473-2.824c-1.917,0-3.095,1.587-3.095,4.138
			c0,2.627,1.298,4.216,3.473,4.216c1.396,0,2.191-0.425,3.289-1.761h0.506c-0.954,1.979-2.601,2.915-5.072,2.915
			c-3.167,0-5.313-1.954-5.313-4.849c0-2.974,2.415-5.225,5.642-5.225c0.672,0,1.271,0.074,1.769,0.147
			c0.525,0.074,0.977,0.146,1.324,0.146c0.35,0,0.453-0.04,0.748-0.293h0.397"/>
		<path fill="#1C3D7B" d="M73.452,24.543c0,2.726-1.001,4.394-2.746,4.394c-1.699,0-2.77-1.668-2.77-4.222
			c0-2.617,0.793-4.524,2.77-4.524C72.552,20.19,73.452,21.921,73.452,24.543 M76.574,24.543c0-2.295-1.798-5.022-5.868-5.022
			c-4.474,0-5.891,3.095-5.891,5.022c0,2.502,1.968,5.05,5.891,5.05C74.623,29.593,76.574,27.016,76.574,24.543"/>
		<path fill="#1C3D7B" d="M80.518,20.628h-1.7v-0.47c1.173-0.714,2.727-2.199,4.044-3.877h0.475v3.614h3.098v0.732h-3.098v5.381
			c0,1.51,0.402,2.404,1.724,2.404c0.495,0,0.925-0.225,1.374-0.748l0.3,0.274c-0.697,1.164-1.621,1.655-3.021,1.655
			c-1.774,0-3.194-0.84-3.194-2.971"/>
		<path fill="#1C3D7B" d="M89.977,20.628H88.28v-0.47c1.175-0.714,2.723-2.199,4.042-3.877H92.8v3.614h3.097v0.732H92.8v5.381
			c0,1.51,0.4,2.404,1.721,2.404c0.497,0,0.928-0.225,1.376-0.748l0.301,0.274c-0.7,1.164-1.626,1.655-3.023,1.655
			c-1.775,0-3.197-0.84-3.197-2.971"/>
		<path fill="#1C3D7B" d="M102.412,27.224c0,0.939,0.473,1.462,1.52,1.584v0.419H98.01v-0.419c1.282-0.244,1.582-0.597,1.582-1.792
			v-4.973c0-1.135-0.321-1.461-1.7-1.733v-0.414l4.091-0.35h0.43 M101.012,13.724c0.901,0,1.62,0.717,1.62,1.604
			c0,0.897-0.719,1.644-1.62,1.644c-0.898,0-1.638-0.746-1.638-1.644C99.374,14.44,100.113,13.724,101.012,13.724"/>
		<path fill="#1C3D7B" d="M113.17,22.445h-0.427c-0.57-1.42-1.646-2.255-2.896-2.255c-0.87,0-1.57,0.414-1.57,1.034
			c0,1.985,5.469,1.292,5.469,5.149c0,2.013-1.869,3.221-3.396,3.221c-0.594,0-1.129-0.075-1.553-0.169
			c-0.443-0.081-0.8-0.157-1.094-0.157c-0.349,0-0.674,0.129-0.874,0.326h-0.425v-3.613h0.425c0.945,1.982,2.07,2.955,3.419,2.955
			c0.899,0,1.674-0.624,1.674-1.367c0-2.481-5.55-1.683-5.55-5.205c0-1.485,1.229-2.844,3.303-2.844
			c0.426,0,0.975,0.073,1.448,0.123c0.472,0.074,0.877,0.151,1.05,0.151c0.227,0,0.447-0.151,0.57-0.249h0.427"/>
		<path fill="#1C3D7B" d="M120.386,21.771h0.05c1.002-1.613,2.055-2.25,3.519-2.25c2.049,0,3.323,1.358,3.323,3.566v4.031
			c0,0.869,0.231,1.416,1.475,1.69v0.417h-5.768v-0.417c1.09-0.298,1.472-0.697,1.472-1.764v-3.762c0-1.462-0.602-2.26-1.694-2.26
			c-0.999,0-1.652,0.626-2.376,1.548v4.604c0,0.914,0.321,1.358,1.501,1.633v0.417h-5.741v-0.417
			c1.066-0.274,1.414-0.719,1.414-1.764V15.953c0-0.897-0.348-1.264-1.414-1.535v-0.426l3.814-0.269h0.426"/>
		<path fill="#4FAE46" d="M143.65,24.222h-0.479c-0.168-1.262-0.82-1.858-2.014-1.858h-2.568v4.26c0,1.314,0.548,1.79,1.99,1.79
			h0.852c1.797,0,2.592-1.319,3.064-2.698h0.43l-0.268,3.512h-11.138v-0.419c1.622-0.348,1.845-0.844,1.845-2.336v-9.309
			c0-1.26-0.295-1.704-1.845-2.006v-0.426h10.95v3.228h-0.424c-0.469-1.855-1.02-2.402-2.637-2.402h-2.82v5.997h2.568
			c1.168,0,1.719-0.499,2.014-1.812h0.479"/>
		<path fill="#4FAE46" d="M155.404,23.256c0-1.413-0.645-2.23-1.742-2.23c-0.951,0-1.752,0.549-2.348,1.636v4.355
			c0,0.969,0.176,1.422,1.396,1.79v0.419h-5.678v-0.419c1.09-0.272,1.469-0.668,1.469-1.614v-5.222c0-1.092-0.455-1.485-1.705-1.661
			v-0.413l4.09-0.351h0.428v2.252h0.055c0.793-1.339,1.994-2.277,3.564-2.277c1.422,0,3.297,0.938,3.297,3.392v4.084
			c0,0.989,0.172,1.487,1.477,1.811v0.419h-5.801v-0.419c1.123-0.243,1.498-0.695,1.498-1.688"/>
		<path fill="#4FAE46" d="M163.42,20.628h-1.693v-0.47c1.174-0.714,2.727-2.199,4.045-3.877h0.473v3.614h3.094v0.732h-3.094v5.381
			c0,1.51,0.395,2.404,1.725,2.404c0.5,0,0.92-0.225,1.369-0.748l0.301,0.274c-0.695,1.164-1.625,1.655-3.025,1.655
			c-1.768,0-3.193-0.84-3.193-2.971"/>
		<path fill="#4FAE46" d="M174.68,23.155c0.082-1.777,0.854-2.965,2-2.965c1.156,0,1.996,1.236,2.094,2.965 M181.824,23.731
			c-0.35-2.579-2.268-4.211-4.941-4.211c-2.971,0-5.246,2.204-5.246,5.104c0,2.845,2.195,4.97,5.15,4.97
			c2.264,0,4.184-1.232,5.037-3.241H181.4c-0.904,1.363-2.004,2.033-3.375,2.033c-1.744,0-3.494-1.586-3.346-4.654H181.824z"/>
		<path fill="#4FAE46" d="M192.482,23.135c-0.826-0.784-1.477-1.215-2.121-1.215c-0.855,0-1.373,0.351-2.094,1.336v3.816
			c0,1.116,0.229,1.46,1.594,1.734v0.419h-5.982v-0.419c1.236-0.297,1.566-0.667,1.566-1.734V22.14c0-1.188-0.521-1.731-1.723-1.83
			v-0.414l4.117-0.375h0.428v2.977h0.043c0.92-2.038,1.951-2.977,3.129-2.977c0.617,0,1.217,0.274,1.67,0.789"/>
		<path fill="#4FAE46" d="M199.148,21.998c0.75-0.895,1.465-1.242,2.398-1.242c1.67,0,2.719,1.541,2.719,3.989
			c0,2.349-1.131,3.913-2.791,3.913c-0.861,0-1.553-0.319-2.326-1.089 M196.334,33.735c0,1.682-0.275,2.18-1.699,2.355v0.415h6.264
			v-0.398c-1.428-0.295-1.75-0.666-1.75-1.977V28.24c1.4,1.088,2.1,1.354,3.301,1.354c2.865,0,4.939-2.153,4.939-5.15
			c0-2.819-1.895-4.924-4.441-4.924c-1.443,0-2.754,0.618-3.799,1.805v-1.805h-0.428l-4.086,0.375v0.414
			c1.523,0.319,1.699,0.745,1.699,2.006V33.735z"/>
		<path fill="#4FAE46" d="M218.424,23.135c-0.828-0.784-1.48-1.215-2.125-1.215c-0.854,0-1.379,0.351-2.098,1.336v3.816
			c0,1.116,0.234,1.46,1.596,1.734v0.419h-5.992v-0.419c1.254-0.297,1.582-0.667,1.582-1.734V22.14c0-1.188-0.529-1.731-1.725-1.83
			v-0.414l4.117-0.375h0.422v2.977h0.047c0.924-2.038,1.949-2.977,3.121-2.977c0.627,0,1.232,0.274,1.68,0.789"/>
		<path fill="#4FAE46" d="M225.887,27.224c0,0.939,0.465,1.462,1.521,1.584v0.419h-5.918v-0.419
			c1.268-0.244,1.566-0.597,1.566-1.792v-4.973c0-1.135-0.326-1.461-1.695-1.733v-0.414l4.088-0.35h0.438 M224.48,13.724
			c0.902,0,1.623,0.717,1.623,1.604c0,0.897-0.721,1.644-1.623,1.644c-0.9,0-1.648-0.746-1.648-1.644
			C222.832,14.44,223.58,13.724,224.48,13.724"/>
		<path fill="#4FAE46" d="M236.639,22.445h-0.424c-0.576-1.42-1.646-2.255-2.893-2.255c-0.877,0-1.572,0.414-1.572,1.034
			c0,1.985,5.463,1.292,5.463,5.149c0,2.013-1.873,3.221-3.396,3.221c-0.594,0-1.119-0.075-1.545-0.169
			c-0.451-0.081-0.799-0.157-1.098-0.157c-0.348,0-0.678,0.129-0.877,0.326h-0.422v-3.613h0.422c0.949,1.982,2.076,2.955,3.42,2.955
			c0.898,0,1.672-0.624,1.672-1.367c0-2.481-5.543-1.683-5.543-5.205c0-1.485,1.225-2.844,3.299-2.844
			c0.424,0,0.973,0.073,1.445,0.123c0.477,0.074,0.875,0.151,1.049,0.151c0.234,0,0.457-0.151,0.576-0.249h0.424"/>
		<path fill="#4FAE46" d="M242.857,23.155c0.07-1.777,0.848-2.965,1.998-2.965s1.996,1.236,2.088,2.965 M250,23.731
			c-0.352-2.579-2.271-4.211-4.941-4.211c-2.979,0-5.244,2.204-5.244,5.104c0,2.845,2.197,4.97,5.135,4.97
			c2.275,0,4.195-1.232,5.051-3.241h-0.426c-0.904,1.363-2.002,2.033-3.373,2.033c-1.744,0-3.49-1.586-3.344-4.654H250z"/>
	</g>
</g>
</svg>
